<?xml version="1.0" standalone="no"?>
<!DOCTYPE svg PUBLIC "-//W3C//DTD SVG 20010904//EN"
 "http://www.w3.org/TR/2001/REC-SVG-20010904/DTD/svg10.dtd">
<svg version="1.0" xmlns="http://www.w3.org/2000/svg"
 width="800.000000pt" height="400.000000pt" viewBox="0 0 800.000000 400.000000"
 preserveAspectRatio="xMidYMid meet">

<g transform="translate(0.000000,400.000000) scale(0.100000,-0.100000)"
fill="#000000" stroke="none">
<path d="M4073 3610 c1 -24 -2 -41 -8 -39 -5 1 -9 11 -7 21 3 15 -1 19 -20 16
-21 -3 -23 -9 -26 -64 -2 -46 1 -64 13 -74 22 -18 44 2 25 25 -10 13 -9 15 8
15 16 0 19 -5 14 -22 -4 -16 -2 -19 9 -13 12 8 12 6 0 -8 -15 -19 -8 -47 13
-47 26 0 36 66 14 88 -9 9 -9 15 1 25 10 10 11 9 6 -5 -5 -14 -2 -18 13 -18
16 0 19 5 14 23 -3 12 -10 25 -16 29 -6 4 -11 24 -11 45 0 32 -4 39 -22 41
-20 3 -22 -1 -20 -38z m29 -7 c-6 -2 -9 -10 -6 -15 4 -7 2 -8 -5 -4 -13 9 -5
26 12 25 9 0 8 -2 -1 -6z"/>
<path d="M4327 3644 c-4 -4 -7 -25 -7 -46 0 -26 -4 -38 -14 -38 -16 0 -10 -40
8 -52 6 -4 10 -20 8 -36 -3 -30 19 -59 38 -47 6 4 9 24 7 46 -3 28 0 39 9 39
8 0 11 7 7 18 -7 18 -5 17 17 -12 10 -13 10 -17 2 -12 -16 10 -28 -22 -14 -36
8 -8 15 -8 26 1 10 9 14 30 13 74 -2 54 -4 62 -22 62 -12 0 -22 -9 -26 -25 -8
-28 -10 -22 -12 30 -2 33 -23 51 -40 34z m27 -12 c3 -5 -1 -9 -9 -9 -8 0 -12
4 -9 9 3 4 7 8 9 8 2 0 6 -4 9 -8z"/>
<path d="M4800 3636 c0 -9 6 -13 14 -10 8 3 17 1 21 -5 4 -7 0 -8 -11 -4 -13
5 -15 3 -9 -7 5 -9 4 -11 -3 -6 -8 5 -12 -2 -13 -21 -1 -28 -1 -28 -8 -3 -4
16 -14 25 -26 25 -17 0 -20 -8 -23 -61 -2 -45 1 -64 12 -73 18 -15 36 -6 36
19 0 17 15 29 35 26 13 -1 7 -27 -11 -47 -17 -18 -9 -49 12 -49 20 0 30 30 13
41 -11 7 -11 9 -1 9 7 0 11 4 7 9 -3 5 1 15 8 23 21 20 28 58 11 58 -8 0 -14
8 -15 18 -1 9 -2 28 -2 42 -2 18 -9 26 -24 28 -15 2 -23 -2 -23 -12z m-34
-135 c-4 -5 0 -11 6 -14 7 -2 9 -8 5 -13 -9 -10 -28 16 -21 28 3 4 7 8 10 8 3
0 3 -4 0 -9z"/>
<path d="M5054 3636 c-4 -9 -4 -28 -1 -41 2 -14 -1 -29 -8 -33 -6 -4 -14 -17
-17 -29 -5 -18 -2 -23 12 -23 11 0 22 4 25 10 9 14 45 -11 45 -32 0 -23 18
-32 36 -17 11 9 14 28 12 73 -3 55 -5 61 -25 64 -19 3 -23 -2 -25 -25 0 -18
-3 -12 -7 17 -6 47 -35 68 -47 36z m8 -98 c-7 -7 -12 -8 -12 -2 0 6 3 14 7 17
3 4 9 5 12 2 2 -3 -1 -11 -7 -17z"/>
<path d="M4203 3513 c9 -2 25 -2 35 0 9 3 1 5 -18 5 -19 0 -27 -2 -17 -5z"/>
<path d="M4810 3505 c-6 -8 -10 -19 -8 -26 2 -6 9 0 16 15 13 29 10 33 -8 11z"/>
<path d="M4933 3513 c9 -2 25 -2 35 0 9 3 1 5 -18 5 -19 0 -27 -2 -17 -5z"/>
<path d="M5060 3506 c-6 -8 -10 -30 -8 -48 2 -25 8 -33 23 -33 11 0 21 8 23
19 3 11 0 16 -7 12 -6 -4 -11 -2 -11 3 0 6 6 11 13 11 6 1 1 8 -13 16 -14 8
-17 13 -7 10 9 -3 17 -1 17 4 0 16 -18 20 -30 6z"/>
<path d="M4523 3270 c-12 -5 -29 -20 -38 -33 -8 -13 -33 -32 -55 -42 -40 -18
-58 -49 -47 -77 3 -7 6 -1 6 13 1 15 9 33 19 40 15 12 16 12 6 -1 -27 -36 -18
-190 12 -190 7 0 19 -3 28 -6 12 -5 16 6 18 58 3 57 5 63 23 59 24 -4 150 -4
185 1 24 3 25 0 28 -53 3 -51 6 -57 27 -61 22 -5 24 -1 35 75 8 57 8 83 1 90
-6 6 -11 21 -11 34 0 13 -10 33 -21 44 -18 18 -29 21 -71 16 -40 -5 -52 -3
-68 13 -21 21 -35 27 -26 11 3 -5 -11 -9 -31 -9 l-38 0 30 13 c33 15 23 19
-12 5z m211 -56 c9 -8 16 -21 16 -27 0 -7 -8 -2 -18 9 -9 12 -24 24 -32 27
-12 4 -12 6 2 6 9 1 24 -6 32 -15z m-177 -20 c-3 -3 -12 -4 -19 -1 -8 3 -5 6
6 6 11 1 17 -2 13 -5z"/>
<path d="M3448 3153 c7 -3 16 -2 19 1 4 3 -2 6 -13 5 -11 0 -14 -3 -6 -6z"/>
<path d="M3377 3136 c4 -5 -1 -7 -10 -3 -10 4 -16 2 -14 -6 1 -7 -4 -11 -12
-9 -11 2 -12 -6 -8 -33 8 -47 22 -64 48 -58 14 4 18 11 14 24 -7 22 10 26 22
5 4 -8 26 -16 48 -18 l40 -3 3 41 c3 48 -4 53 -85 63 -32 4 -49 3 -46 -3z"/>
<path d="M3310 3007 c0 -9 -9 -22 -20 -30 -45 -31 -67 -166 -37 -234 16 -40
37 -31 37 17 0 30 8 48 31 75 l31 35 28 -23 c15 -13 53 -34 83 -46 37 -15 63
-33 76 -54 11 -17 29 -31 40 -32 25 -2 36 39 35 127 -2 115 -62 163 -199 161
-44 -1 -85 3 -92 9 -10 8 -13 6 -13 -5z m250 -82 c13 -14 21 -25 18 -25 -2 0
-15 11 -28 25 -13 14 -21 25 -18 25 2 0 15 -11 28 -25z"/>
<path d="M4267 2787 c-102 -48 -100 -24 -13 -222 l61 -140 -2 -115 c-1 -63 -9
-206 -19 -318 -9 -112 -14 -206 -11 -209 14 -14 105 -23 277 -29 197 -7 296 4
307 33 3 9 1 145 -6 304 -9 212 -9 299 -1 329 6 23 35 94 65 159 80 176 83
159 -27 209 -51 23 -96 42 -99 42 -4 0 -21 -22 -39 -50 -24 -37 -38 -50 -56
-50 -19 0 -24 -5 -24 -24 0 -15 -11 -33 -27 -46 -56 -44 -175 -5 -160 52 4 14
-1 18 -23 18 -23 0 -34 10 -60 50 -18 28 -37 50 -44 49 -6 0 -50 -19 -99 -42z"/>
<path d="M3250 2441 c0 -26 40 -82 78 -108 99 -66 241 -13 277 105 4 16 2 22
-9 22 -8 0 -18 -10 -21 -22 -12 -37 -67 -88 -108 -99 -72 -19 -152 18 -184 87
-18 37 -33 44 -33 15z"/>
<path d="M5100 1645 l-5 -190 -57 -3 c-54 -3 -58 -5 -58 -27 0 -16 -6 -25 -15
-25 -8 0 -15 -9 -15 -20 0 -19 7 -20 155 -20 145 0 155 1 155 19 0 10 -7 21
-15 25 -8 3 -15 14 -15 25 0 17 -8 20 -57 23 l-58 3 -5 190 -5 190 -5 -190z"/>
<path d="M3163 1757 c-4 -6 -9 -61 -11 -122 -4 -128 16 -253 70 -440 29 -101
38 -120 54 -119 110 9 153 17 158 29 3 8 8 102 12 210 4 107 9 195 11 195 8 0
264 -178 340 -237 127 -98 178 -113 232 -67 39 32 49 80 26 125 -31 61 -312
392 -360 423 -20 13 -28 13 -73 -4 -112 -43 -291 -43 -403 -1 -35 14 -51 16
-56 8z"/>
<path d="M5322 1473 l3 -108 65 -3 c44 -2 68 1 75 10 5 7 22 19 38 25 58 26
56 104 -3 125 -22 7 -30 16 -30 34 0 23 -2 24 -75 24 l-76 0 3 -107z m188 17
c11 -11 20 -24 20 -30 0 -13 -37 -50 -50 -50 -5 0 -10 23 -10 50 0 54 9 61 40
30z"/>
<path d="M3505 1177 c-4 -10 -5 -21 -1 -24 10 -10 18 4 13 24 -4 17 -4 17 -12
0z"/>
<path d="M3469 1098 c-7 -24 -17 -49 -22 -55 -7 -10 30 -13 177 -13 122 0 185
3 181 10 -3 6 1 10 9 10 12 0 16 11 16 45 l0 45 -175 0 -174 0 -12 -42z"/>
<path d="M4038 1072 l-78 -3 0 -39 c0 -32 4 -40 18 -40 16 0 22 -19 41 -132
12 -73 25 -143 28 -156 5 -22 8 -23 107 -20 l101 3 12 65 c7 36 12 122 13 192
l0 126 -37 6 c-21 3 -58 4 -83 3 -25 -1 -80 -3 -122 -5z"/>
<path d="M3510 981 c0 -17 -6 -21 -32 -21 -17 0 -29 -3 -25 -6 3 -4 67 -6 142
-5 l135 2 0 -30 0 -30 -137 -4 -138 -3 173 -2 172 -2 12 -25 c8 -19 8 -31 0
-50 l-11 -25 -173 -3 -173 -3 180 1 180 0 9 26 c13 39 0 78 -29 85 -34 9 -36
60 -2 67 12 2 -42 5 -120 6 -117 1 -143 4 -143 15 0 8 -4 18 -10 21 -5 3 -10
-3 -10 -14z"/>
<path d="M5226 927 c-37 -45 -45 -82 -25 -118 7 -14 7 -35 -2 -73 -9 -43 -8
-71 5 -152 13 -87 14 -100 1 -110 -8 -6 -15 -16 -15 -21 0 -21 50 -43 97 -43
77 -1 30 -18 -80 -29 -104 -10 -117 -14 -117 -36 0 -23 36 -36 103 -36 196 -1
359 154 293 279 -8 15 -35 47 -61 72 -26 25 -53 58 -62 73 -13 27 -13 33 11
83 33 70 33 78 -4 71 -39 -8 -90 20 -90 50 0 38 -17 35 -54 -10z m29 -117 c3
-5 1 -10 -4 -10 -6 0 -11 5 -11 10 0 6 2 10 4 10 3 0 8 -4 11 -10z"/>
<path d="M3702 920 c0 -14 2 -19 5 -12 2 6 2 18 0 25 -3 6 -5 1 -5 -13z"/>
<path d="M3791 914 c0 -11 3 -14 6 -6 3 7 2 16 -1 19 -3 4 -6 -2 -5 -13z"/>
<path d="M2993 803 c8 -130 1 -123 123 -123 123 0 120 -3 126 126 l3 79 -129
3 -129 3 6 -88z"/>
<path d="M4331 440 c-13 -6 -32 -8 -42 -5 -21 7 -25 -5 -7 -23 15 -15 142 -16
169 -2 25 14 24 25 -3 26 -13 1 -39 4 -58 8 -19 3 -46 1 -59 -4z"/>
<path d="M4731 439 c-14 -5 -31 -7 -38 -5 -20 8 -15 -12 6 -24 27 -14 154 -13
169 2 19 19 14 25 -15 25 -16 0 -44 3 -63 7 -19 3 -46 1 -59 -5z"/>
</g>
</svg>
